FFmpeg version SVN-r25716, Copyright (c) 2000-2010 the FFmpeg developers  built on Nov 10 2010 12:23:18 with gcc 4.1.2 20080704 (Red Hat 4.1.2-48)  configuration: --enable-libmp3lame --enable-shared --disable-mmx --arch=x86_64  libavutil     50.33. 0 / 50.33. 0  libavcore      0.12. 1 /  0.12. 1  libavcodec    52.94. 4 / 52.94. 4  libavformat   52.84. 0 / 52.84. 0  libavdevice   52. 2. 2 / 52. 2. 2  libavfilter    1.59. 0 /  1.59. 0  libswscale     0.12. 0 /  0.12. 0Input #0, avi, from '/RAID10/data/converted_video_files/47507.avi':  Duration: 00:00:01.40, start: 0.000000, bitrate: 283115 kb/s    Stream #0.0: Video: msvideo1, rgb555le, 1024x1024, 30 tbr, 30 tbn, 30 tbc[buffer @ 0x22c5b40] w:1024 h:1024 pixfmt:rgb555le[ffsink @ 0x22ffec0] auto-inserting filter 'auto-inserted scaler 0' between the filter 'src' and the filter 'out'[scale @ 0x23001e0] w:1024 h:1024 fmt:rgb555le -> w:1024 h:1024 fmt:yuv420p flags:0x4Output #0, flv, to '/RAID10/data/converted_video_files/47507.flv':  Metadata:    encoder         : Lavf52.84.0    Stream #0.0: Video: flv, yuv420p, 1024x1024, q=2-31, 600 kb/s, 1k tbn, 24 tbcStream mapping:  Stream #0.0 -> #0.0Press [q] to stop encodingframe=    5 fps=  0 q=4.3 size=     778kB time=0.21 bitrate=30631.7kbits/s dup=0 drop=1    frame=   12 fps= 10 q=24.2 size=     836kB time=0.50 bitrate=13701.5kbits/s dup=0 drop=3    frame=   20 fps= 12 q=31.0 size=     884kB time=0.83 bitrate=8697.2kbits/s dup=0 drop=5    frame=   28 fps= 13 q=31.0 size=     923kB time=1.17 bitrate=6480.5kbits/s dup=0 drop=6    frame=   34 fps= 11 q=31.0 Lsize=     937kB time=1.42 bitrate=5416.9kbits/s dup=0 drop=8    video:936kB audio:0kB global headers:0kB muxing overhead 0.078647%